<svg width="13" height="17" viewBox="0 0 13 17" fill="none" xmlns="http://www.w3.org/2000/svg">
<g clip-path="url(#clip0_2285_90)">
<path d="M11.3649 6.18309C11.2518 6.18309 11.1546 6.18358 11.0569 6.18309C10.6062 6.17922 10.3131 5.86095 10.3113 5.36903C10.3096 4.92258 10.3109 4.47613 10.3109 4.02968C10.3109 3.44392 10.4781 3.21078 11.0102 3.07534C11.0102 2.93168 11.0098 2.78222 11.0102 2.63276C11.0115 2.06248 11.1889 1.57201 11.5612 1.17055C11.6514 1.07332 11.7364 0.969812 11.831 0.878393C11.974 0.740539 12.1787 0.748279 12.3089 0.887583C12.4436 1.03172 12.4555 1.24455 12.3301 1.41046C12.2636 1.49849 12.1897 1.58072 12.1127 1.65763C11.8248 1.94398 11.6924 2.29659 11.717 2.72273C11.7236 2.8364 11.7179 2.95055 11.7179 3.09663C11.842 3.09663 11.9542 3.09711 12.0664 3.09663C12.2482 3.09614 12.3666 3.19143 12.4242 3.38056C12.6047 3.97453 12.7917 4.56658 12.9634 5.16394C13.1148 5.69117 12.7856 6.17294 12.2817 6.18309C12.2227 6.18406 12.1637 6.18309 12.0871 6.18309C12.0871 6.27016 12.0871 6.34078 12.0871 6.4114C12.0871 8.63205 12.088 10.8527 12.0862 13.0729C12.0858 13.7583 11.647 14.2763 11.0626 14.2923C10.4614 14.3087 9.98171 13.7994 9.97995 13.1256C9.97599 11.6353 9.97863 10.1446 9.97819 8.6543C9.97819 8.23638 9.86641 8.11159 9.49101 8.11111C9.38186 8.11111 9.27228 8.11111 9.13365 8.11111C9.13365 8.19817 9.13365 8.27363 9.13365 8.3486C9.13365 10.8164 9.13409 13.2847 9.13321 15.7525C9.13277 16.362 8.84803 16.8075 8.36172 16.9507C8.24686 16.9845 8.12363 16.9976 8.00392 16.9981C5.71455 17.001 3.42517 17.001 1.13579 16.9995C0.443084 16.999 0.000787835 16.5129 0.000787835 15.7564C0.00034774 10.9165 0.00034774 6.07716 0.000787835 1.23778C0.000787835 0.491436 0.443964 0.00193479 1.12523 0.00145109C3.42033 -0.000483697 5.71499 -0.000483697 8.01009 0.00145109C8.69443 0.00193479 9.13233 0.483696 9.13321 1.23584C9.13497 3.19095 9.13409 5.14605 9.13409 7.10115C9.13409 7.17274 9.13409 7.24384 9.13409 7.34155C9.28108 7.34155 9.41575 7.34106 9.55086 7.34155C10.218 7.34445 10.6617 7.83056 10.6634 8.57255C10.6669 10.0328 10.6643 11.4931 10.6647 12.9534C10.6647 13.0197 10.6634 13.0864 10.6678 13.1522C10.6828 13.3636 10.8254 13.5164 11.0085 13.5198C11.1889 13.5237 11.3416 13.3718 11.3627 13.1643C11.3671 13.1227 11.3654 13.0801 11.3654 13.0376C11.3654 10.8111 11.3654 8.58416 11.3654 6.35771C11.3649 6.30547 11.3649 6.25275 11.3649 6.18309ZM8.4339 8.5058C8.4339 6.11005 8.4339 3.71431 8.4339 1.31904C8.4339 0.891453 8.33399 0.779235 7.95067 0.779235C5.6943 0.779235 3.43749 0.779235 1.18112 0.779235C0.808803 0.779235 0.70098 0.897741 0.70098 1.30743C0.70098 6.10473 0.70098 10.902 0.70098 15.6993C0.70098 16.0994 0.810123 16.2212 1.17012 16.2212C3.43749 16.2217 5.7053 16.2217 7.97268 16.2212C8.32387 16.2212 8.4339 16.0994 8.4339 15.7114C8.4339 13.3094 8.4339 10.9078 8.4339 8.5058ZM11.0472 3.8657C11.0472 4.3968 11.0472 4.89936 11.0472 5.40483C11.4657 5.40483 11.8697 5.40483 12.2957 5.40483C12.1435 4.90033 11.9973 4.41035 11.8455 3.92181C11.8372 3.89521 11.787 3.8686 11.7557 3.86812C11.5212 3.86377 11.2866 3.8657 11.0472 3.8657Z" fill="#979797"/>
<path d="M4.58008 1.54834C5.47479 1.54834 6.36907 1.54834 7.26378 1.54834C7.61146 1.54834 7.73337 1.67845 7.73337 2.0538C7.73381 3.77867 7.73381 5.50401 7.73337 7.22888C7.73337 7.59262 7.60662 7.73047 7.27347 7.73047C5.46775 7.73096 3.66248 7.73096 1.85676 7.73047C1.52889 7.73047 1.40875 7.59842 1.40875 7.24C1.40831 5.50305 1.40831 3.76561 1.40875 2.02865C1.40875 1.67797 1.52801 1.54882 1.84708 1.54882C2.75808 1.54834 3.66908 1.54834 4.58008 1.54834ZM7.01293 6.9435C7.01293 5.39276 7.01293 3.86428 7.01293 2.32999C5.37401 2.32999 3.74742 2.32999 2.1217 2.32999C2.1217 3.87589 2.1217 5.41018 2.1217 6.9435C3.75798 6.9435 5.38105 6.9435 7.01293 6.9435Z" fill="#979797"/>
<path d="M4.57921 11.5865C3.65677 11.5865 2.73433 11.5874 1.81233 11.586C1.56807 11.5855 1.42504 11.4554 1.41184 11.2334C1.39908 11.0191 1.52978 10.8449 1.72475 10.8208C1.77888 10.814 1.83433 10.8174 1.88934 10.8174C3.67349 10.8174 5.45808 10.8174 7.24223 10.8174C7.28052 10.8174 7.31925 10.8164 7.35754 10.8179C7.57935 10.8266 7.73382 10.9886 7.7303 11.2092C7.72678 11.423 7.57803 11.5831 7.36282 11.5845C6.67671 11.5889 5.99016 11.5865 5.30405 11.5869C5.06244 11.5869 4.82082 11.5869 4.57921 11.5865Z" fill="#979797"/>
<path d="M2.28981 9.26856C2.11465 9.26856 1.93905 9.2734 1.76433 9.26711C1.54781 9.25937 1.40962 9.10459 1.4105 8.88306C1.41182 8.66588 1.55661 8.5053 1.76961 8.50191C2.11465 8.49659 2.45968 8.49611 2.80428 8.5024C3.01244 8.50578 3.16252 8.67653 3.1612 8.88887C3.15988 9.10266 3.01244 9.26082 2.79856 9.2676C2.62956 9.27292 2.45968 9.26856 2.28981 9.26856Z" fill="#979797"/>
<path d="M6.99576 8.5005C7.16564 8.5005 7.33552 8.49663 7.50496 8.50196C7.71488 8.50873 7.86672 8.67222 7.86848 8.88359C7.87024 9.09448 7.71928 9.26329 7.50936 9.26716C7.16432 9.27296 6.81928 9.27296 6.47425 9.26716C6.25728 9.26377 6.11601 9.10705 6.11469 8.88843C6.11381 8.66448 6.263 8.50873 6.48657 8.5005C6.49757 8.50002 6.50858 8.5005 6.51958 8.5005C6.67801 8.50002 6.83689 8.50002 6.99576 8.5005Z" fill="#979797"/>
<path d="M2.28277 10.4266C2.10761 10.4266 1.93201 10.4319 1.75729 10.4252C1.54957 10.4169 1.41402 10.2655 1.41094 10.0517C1.40786 9.83262 1.55001 9.66526 1.76037 9.66139C2.11069 9.65511 2.46145 9.65462 2.81177 9.66139C3.01201 9.66526 3.15768 9.83166 3.16164 10.0377C3.1656 10.252 3.01861 10.4179 2.80825 10.4261C2.63309 10.4319 2.45793 10.4271 2.28277 10.4266Z" fill="#979797"/>
<path d="M7.00062 9.65894C7.16477 9.65894 7.32937 9.65555 7.49353 9.65942C7.71401 9.66474 7.86981 9.8292 7.86849 10.0469C7.86673 10.2583 7.71622 10.4217 7.50453 10.4251C7.15949 10.4304 6.81446 10.4309 6.46942 10.4246C6.25421 10.4208 6.11294 10.2597 6.1147 10.0406C6.11602 9.82388 6.26213 9.66571 6.47514 9.65942C6.64986 9.65507 6.82546 9.65942 7.00062 9.65894Z" fill="#979797"/>
</g>
<defs>
<clipPath id="clip0_2285_90">
<rect width="13" height="17" fill="white"/>
</clipPath>
</defs>
</svg>
