<svg width="30" height="21" viewBox="0 0 30 21" fill="none" xmlns="http://www.w3.org/2000/svg">
<g clip-path="url(#clip0_602_9287)">
<path d="M29.17 10.4135C29.16 10.3835 29.15 10.3635 29.15 10.3435C28.89 9.0535 28.3 8.0635 27.35 7.3235C27.02 7.0635 26.69 6.8035 26.37 6.5435L26.21 6.4135H26.22C26.56 6.3435 26.89 6.2835 27.21 6.2135C27.67 6.1135 27.85 5.8935 27.85 5.4335C27.85 5.0435 27.85 4.6535 27.85 4.2735C27.85 3.7635 27.59 3.5035 27.08 3.5035C26.42 3.5035 25.73 3.5035 25.02 3.5035C24.52 3.5035 24.26 3.7535 24.24 4.2335C23.92 3.6035 23.61 2.9535 23.31 2.3335L23.19 2.0935C22.49 0.643496 21.34 -0.0965039 19.77 -0.0965039C16.12 -0.106504 12.69 -0.106504 9.27001 -0.0965039C7.70001 -0.0965039 6.55001 0.643496 5.86001 2.0935C5.75001 2.3235 5.65001 2.5435 5.55001 2.7735C5.41001 3.0835 5.27001 3.4135 5.11001 3.7235C5.02001 3.8935 4.92001 4.0635 4.82001 4.2335C4.80001 3.7535 4.54001 3.5035 4.06001 3.4935C3.30001 3.4835 2.61001 3.4835 1.94001 3.4935C1.47001 3.4935 1.21001 3.7635 1.20001 4.2435C1.20001 4.5935 1.20001 4.9535 1.20001 5.4335C1.20001 5.8935 1.39001 6.1035 1.85001 6.2035L2.85001 6.4135L2.72001 6.5135C2.37001 6.8035 2.03001 7.0735 1.69001 7.3335C1.02001 7.8535 0.510006 8.5335 0.200006 9.3535C0.100006 9.6235 0.0200061 9.8935 -0.0399939 10.1335C-0.0699939 10.2435 -0.0999939 10.3635 -0.139994 10.4735L-0.149994 18.8935L-0.139994 18.9635C0.120006 19.6435 0.510006 20.0235 1.10001 20.1435C1.26001 20.1735 1.42001 20.1835 1.54001 20.1835C2.66001 20.1835 3.80001 20.1835 4.93001 20.1835C5.95001 20.1835 6.62001 19.5235 6.62001 18.5035C6.62001 18.3335 6.62001 18.1635 6.62001 17.9835V17.9535H22.43V18.5635C22.44 19.5135 23.11 20.1835 24.06 20.1835C24.42 20.1835 24.8 20.1835 25.15 20.1835C25.83 20.1835 26.54 20.1735 27.24 20.1935C27.28 20.1935 27.32 20.1935 27.37 20.1935C28.3 20.1935 28.9 19.7935 29.2 18.9435L29.21 10.5335L29.17 10.4135ZM8.54001 16.1135C10.33 16.1135 12.12 16.1135 13.91 16.1135H20.27C20.72 16.1135 21.1 16.2535 21.44 16.5435H7.38001C7.72001 16.2635 8.10001 16.1135 8.54001 16.1135ZM6.29001 4.3835C6.36001 4.2335 6.43001 4.0835 6.49001 3.9335C6.75001 3.3535 7.00001 2.8035 7.31001 2.2835C7.71001 1.6135 8.38001 1.2435 9.20001 1.2435C12.81 1.2335 16.35 1.2335 19.86 1.2435C20.77 1.2435 21.48 1.6935 21.9 2.5235C22.15 3.0035 22.36 3.4935 22.6 4.0135L22.76 4.3835H6.29001ZM23.44 5.5935V5.7435C23.6 5.7435 23.68 5.7935 23.79 5.9135C24.15 6.2935 24.53 6.6635 24.9 7.0335L25.24 7.3735C25.22 7.3835 25.21 7.3835 25.19 7.3935L24.46 7.6835C23.88 7.9135 23.29 8.1435 22.71 8.3935C22.46 8.5035 22.21 8.6635 21.94 8.9035C21.8 9.0235 21.68 9.1635 21.56 9.2935C21.37 9.5035 21.2 9.7035 20.99 9.7835C20.77 9.8735 20.47 9.8535 20.17 9.8335C20.03 9.8235 19.88 9.8135 19.74 9.8135H18.73C17.84 9.8135 16.92 9.8135 16.01 9.8235C15.78 9.8235 15.51 9.9335 15.32 10.1035C15.09 10.3035 14.88 10.5235 14.64 10.7635C14.6 10.8035 14.56 10.8535 14.52 10.8935L14.34 10.7135C14.14 10.5135 13.95 10.3235 13.77 10.1335C13.57 9.9135 13.33 9.8135 13.01 9.8135C11.25 9.8235 9.67001 9.8235 8.19001 9.8135C8.09 9.8135 7.98001 9.7635 7.96001 9.7235C7.27001 8.8735 6.37001 8.2835 5.21001 7.9135C4.81001 7.7835 4.42001 7.6235 4.04001 7.4635L3.99001 7.4435C3.94001 7.4235 3.89001 7.4035 3.84001 7.3835L4.95001 6.3135C4.99001 6.2735 5.05001 6.2235 5.09001 6.1435C5.25001 5.8435 5.47001 5.7435 5.97001 5.7435H5.98001C12.02 5.7635 18.16 5.7535 23.44 5.7535V5.5935ZM1.21001 17.6335C1.78001 17.9235 2.37001 17.9235 2.95001 17.9135H3.09001C3.63001 17.9135 4.16001 17.9135 4.74001 17.9135H5.26001V18.0035C5.26001 18.2235 5.27001 18.4435 5.25001 18.6535C5.24001 18.7835 5.13001 18.8135 5.04001 18.8135C3.76001 18.8235 2.58001 18.8235 1.43001 18.8135C1.21001 18.8135 1.21001 18.6635 1.20001 18.6135C1.20001 18.3135 1.20001 17.9935 1.20001 17.6735L1.21001 17.6335ZM2.61001 16.5635H2.42001C1.67001 16.5635 1.21001 16.1035 1.21001 15.3635C1.21001 14.9335 1.21001 14.5035 1.21001 14.0735V13.4235C1.21001 13.5135 1.21001 13.5935 1.21001 13.6835C1.24001 14.7735 2.11001 15.6435 3.20001 15.6635C3.55001 15.6735 3.91001 15.6635 4.26001 15.6635H4.50001C4.96001 15.6635 5.26001 15.4035 5.26001 14.9935C5.26001 14.8135 5.20001 14.6535 5.08001 14.5335C4.94001 14.3935 4.73001 14.3135 4.48001 14.3135H3.78001H3.66001H3.41001C3.10001 14.3135 2.88001 14.2535 2.75001 14.1235C2.62001 13.9935 2.56001 13.7735 2.56001 13.4535V13.4135C3.16001 13.3735 3.77001 13.4035 4.28001 13.8235C4.63001 14.1135 5.03001 14.1035 5.29001 13.8035C5.41001 13.6635 5.47001 13.5035 5.45001 13.3235C5.43001 13.1235 5.33001 12.9435 5.15001 12.7935C4.57001 12.3135 3.92001 12.0635 3.20001 12.0535C2.69001 12.0435 2.18001 12.0435 1.68001 12.0535H1.24001V10.8635C1.69001 11.1235 2.16001 11.1635 2.61001 11.1635C3.78001 11.1435 4.76001 11.1535 5.68001 11.1635C6.10001 11.1635 6.40001 11.0335 6.63001 10.7535C6.69001 10.6735 6.75001 10.6035 6.83001 10.5035L6.84001 10.5135C6.95001 10.6335 7.05001 10.7335 7.14001 10.8335C7.33001 11.0535 7.57001 11.1535 7.91001 11.1535C9.51001 11.1435 11.11 11.1535 12.71 11.1435C12.85 11.1435 12.92 11.1735 13.01 11.2735C13.27 11.5435 13.54 11.8135 13.8 12.0635L13.97 12.2335C14.34 12.5935 14.7 12.5935 15.06 12.2335L15.19 12.1035C15.45 11.8435 15.73 11.5735 15.98 11.3035C16.1 11.1735 16.21 11.1435 16.38 11.1335C16.96 11.1335 17.54 11.1335 18.12 11.1335H18.47C19.29 11.1335 20.13 11.1335 20.95 11.1435C21.45 11.1435 21.78 11.0035 22.04 10.6635C22.08 10.6035 22.13 10.5535 22.19 10.4935C22.2 10.5035 22.22 10.5235 22.23 10.5335C22.64 11.1135 23.24 11.1635 23.65 11.1335C24.3 11.1135 24.95 11.1135 25.61 11.1235H25.75C25.98 11.1235 26.21 11.1235 26.44 11.1235C27.1 11.1235 27.35 11.0935 27.81 10.8235V12.0235H27.1C26.7 12.0235 26.29 12.0235 25.89 12.0235C25.18 12.0235 24.52 12.2735 23.94 12.7435C23.74 12.9035 23.63 13.0935 23.61 13.2935C23.59 13.4635 23.65 13.6335 23.77 13.7735C24.03 14.0735 24.42 14.0835 24.78 13.7935C25.14 13.5035 25.51 13.3735 25.94 13.3735C25.95 13.3735 25.97 13.3735 25.99 13.3735C26.15 13.3735 26.32 13.3735 26.48 13.3735H26.5C26.53 13.6535 26.47 13.8835 26.33 14.0435C26.17 14.2235 25.92 14.3035 25.62 14.2735C25.39 14.2535 25.17 14.2535 24.93 14.2635H24.86C24.79 14.2635 24.71 14.2635 24.64 14.2635H24.59C24.53 14.2635 24.47 14.2635 24.41 14.2735C24.04 14.3135 23.78 14.6135 23.8 14.9635C23.82 15.3435 24.07 15.6035 24.42 15.6135L24.62 15.6235C25.08 15.6335 25.61 15.6535 26.12 15.5935C27.08 15.4735 27.78 14.7235 27.86 13.7335C27.86 13.7935 27.86 13.8435 27.86 13.9035C27.87 14.4535 27.88 15.0335 27.84 15.5935C27.81 16.0935 27.34 16.5135 26.79 16.5235C25.64 16.5435 24.47 16.5335 23.47 16.5235C23.45 16.5235 23.39 16.5035 23.34 16.4535C23.16 16.2835 22.98 16.1035 22.8 15.9235C22.72 15.8335 22.63 15.7535 22.54 15.6635C21.92 15.0435 21.16 14.7335 20.28 14.7335H8.58001C7.70001 14.7335 6.94001 15.0435 6.32001 15.6635C6.24001 15.7435 6.16001 15.8235 6.08001 15.9035C5.92001 16.0735 5.73001 16.2535 5.54001 16.4235C5.48001 16.4835 5.37001 16.5235 5.30001 16.5235C4.40001 16.5735 3.49001 16.5735 2.61001 16.5635ZM27.11 9.7035C26.99 9.7635 26.84 9.7935 26.69 9.7935H26.4C25.45 9.8035 24.46 9.8135 23.48 9.7835C23.41 9.7835 23.3 9.7035 23.21 9.6335L25.25 8.8135C25.62 8.6635 25.99 8.5135 26.37 8.3835C26.39 8.3735 26.48 8.3835 26.51 8.3935C26.81 8.6735 27.05 8.9335 27.25 9.1835C27.32 9.2735 27.34 9.3635 27.32 9.4635C27.3 9.5635 27.22 9.6535 27.11 9.7035ZM5.33001 9.8135C4.92001 9.8035 4.50001 9.8035 4.08001 9.8035C3.83001 9.8035 3.59001 9.8035 3.34001 9.8035C3.01001 9.8035 2.67001 9.8035 2.33001 9.8035C1.89001 9.8035 1.78001 9.5935 1.73001 9.4435C1.72001 9.3935 1.71001 9.3335 1.71001 9.3435C2.03001 8.9635 2.36001 8.6035 2.61001 8.3535C3.61001 8.7535 4.62001 9.1635 5.61001 9.5635L5.83001 9.6535C5.70001 9.7635 5.56001 9.8235 5.33001 9.8135ZM25.61 5.1435V4.8635H26.49V4.8735C26.5 4.9435 26.49 4.9735 26.49 4.9735C26.49 4.9735 26.46 4.9935 26.39 5.0035C26.15 5.0335 25.92 5.0735 25.65 5.1335L25.61 5.1435ZM23.78 17.9835V17.9135C23.8 17.9135 23.82 17.9135 23.84 17.9135H24.49C25.04 17.9135 25.61 17.9135 26.17 17.9135C26.71 17.9235 27.28 17.9135 27.84 17.6235V17.6535C27.84 17.9635 27.84 18.2535 27.84 18.5435C27.84 18.7135 27.76 18.7935 27.59 18.7935C26.44 18.8035 25.24 18.8035 24.04 18.7935C23.86 18.7935 23.79 18.7235 23.78 18.5435C23.78 18.3735 23.78 18.1935 23.78 17.9835ZM2.57001 4.9735V4.8635H3.44001V5.1435L2.57001 4.9735Z" fill="#F36F20"/>
</g>
<defs>
<clipPath id="clip0_602_9287">
<rect width="30" height="20" fill="white" transform="translate(0 0.0334473)"/>
</clipPath>
</defs>
</svg>
