<svg width="30" height="31" viewBox="0 0 30 31" fill="none" xmlns="http://www.w3.org/2000/svg">
<path d="M14.8784 7.50952C14.1367 7.50952 13.4117 7.72945 12.795 8.14151C12.1783 8.55357 11.6976 9.13924 11.4138 9.82446C11.13 10.5097 11.0557 11.2637 11.2004 11.9911C11.3451 12.7185 11.7023 13.3867 12.2267 13.9112C12.7512 14.4356 13.4193 14.7928 14.1468 14.9375C14.8742 15.0822 15.6282 15.0079 16.3134 14.7241C16.9986 14.4402 17.5843 13.9596 17.9964 13.3429C18.4084 12.7262 18.6284 12.0012 18.6284 11.2595C18.6272 10.2653 18.2318 9.31214 17.5288 8.60912C16.8257 7.90611 15.8726 7.51065 14.8784 7.50952ZM14.8784 13.1345C14.5075 13.1345 14.145 13.0246 13.8367 12.8185C13.5283 12.6125 13.288 12.3197 13.1461 11.9771C13.0042 11.6344 12.967 11.2574 13.0394 10.8937C13.1117 10.53 13.2903 10.1959 13.5525 9.9337C13.8148 9.67147 14.1488 9.4929 14.5126 9.42055C14.8763 9.3482 15.2533 9.38533 15.5959 9.52725C15.9385 9.66916 16.2313 9.90948 16.4374 10.2178C16.6434 10.5262 16.7534 10.8887 16.7534 11.2595C16.7528 11.7566 16.5551 12.2332 16.2035 12.5847C15.852 12.9362 15.3755 13.1339 14.8784 13.1345Z" fill="#F36F20"/>
<path d="M22.0843 4.0481C20.3027 2.26688 17.9243 1.20876 15.4084 1.07796C12.8924 0.947165 10.4172 1.75296 8.46043 3.33984C6.50365 4.92671 5.20405 7.18217 4.81243 9.6709C4.42082 12.1596 4.96497 14.7052 6.33984 16.8163L13.4242 27.6921C13.5819 27.9341 13.7975 28.1329 14.0514 28.2706C14.3053 28.4082 14.5896 28.4803 14.8784 28.4803C15.1672 28.4803 15.4515 28.4082 15.7054 28.2706C15.9593 28.1329 16.1749 27.9341 16.3325 27.6921L23.4172 16.8163C24.6929 14.858 25.2567 12.5206 25.014 10.196C24.7714 7.87135 23.737 5.70079 22.0843 4.0481ZM21.8462 15.7929L14.8784 26.4892L7.91063 15.7929C5.77781 12.5187 6.23525 8.13707 8.9983 5.3739C9.77048 4.6017 10.6872 3.98916 11.6961 3.57124C12.705 3.15333 13.7864 2.93823 14.8784 2.93823C15.9705 2.93823 17.0518 3.15333 18.0607 3.57124C19.0696 3.98916 19.9864 4.6017 20.7585 5.3739C23.5216 8.13707 23.979 12.5187 21.8462 15.7929Z" fill="#F36F20"/>
</svg>
