<svg width="15" height="15" viewBox="0 0 15 15" fill="none" xmlns="http://www.w3.org/2000/svg">
<path d="M14.8765 1.33162C14.5621 0.483619 13.7369 -0.0386571 12.8387 0.00626985C12.0191 0.0568127 11.2725 0.640864 11.0311 1.43832C10.7841 2.247 11.0647 3.1287 11.7272 3.63412C11.8507 3.72398 11.9012 3.83068 11.9012 3.98231C11.8956 4.39788 11.8956 4.81346 11.8956 5.23465V5.77939C11.8956 6.19496 11.6542 6.43083 11.2388 6.43083H10.6886C10.262 6.43083 9.83533 6.43083 9.40868 6.43083C9.26272 6.43083 9.17852 6.36344 9.11677 6.29043C8.99326 6.15004 8.85292 6.00964 8.70696 5.88047C8.61153 5.80185 8.57223 5.712 8.57223 5.59968C8.57784 5.04933 8.57784 4.49897 8.57223 3.94861C8.57223 3.81945 8.61714 3.73521 8.71819 3.65097C9.39184 3.11185 9.65007 2.43233 9.48166 1.62926C9.30763 0.786876 8.78555 0.258984 7.93226 0.0568127C7.02844 -0.156591 6.07972 0.303911 5.66991 1.15191C5.26572 1.99429 5.49588 3.02761 6.22567 3.60605C6.37163 3.71836 6.42777 3.84191 6.42216 4.02724C6.41093 4.5439 6.41654 5.07179 6.42216 5.58283C6.42216 5.70638 6.38286 5.79624 6.28743 5.88047C6.1976 5.9591 6.1134 6.04895 6.02919 6.13319C5.97305 6.19496 5.9113 6.25674 5.84955 6.3129C5.81587 6.34659 5.72605 6.4196 5.625 6.4196C4.95135 6.42521 4.28331 6.42521 3.60966 6.4196H3.27283C3.25599 6.4196 3.23915 6.4196 3.22231 6.41398L3.1381 6.40275L3.11003 6.26235C3.11003 6.22866 3.10442 6.19496 3.10442 6.16127V5.48175C3.10442 4.9707 3.10442 4.45966 3.10442 3.94861C3.10442 3.81945 3.14933 3.72959 3.25037 3.65097C3.97455 3.10062 4.24963 2.16838 3.92403 1.32038C3.60966 0.483619 2.76198 -0.0555048 1.88061 0.00626985C0.954341 0.0736603 0.174027 0.781261 0.0280689 1.69665C0.0224551 1.72473 0.0168413 1.75842 0.00561377 1.7865L0 1.80897V2.26947L0.0224551 2.34809C0.0392964 2.41548 0.0505239 2.47725 0.0673653 2.54465C0.190868 2.99953 0.437874 3.36456 0.791542 3.63974C0.903817 3.71836 0.954341 3.81383 0.954341 3.95423C0.948728 6.31851 0.954341 8.68841 0.954341 11.0527C0.954341 11.1931 0.909431 11.2829 0.802769 11.3616C0.381736 11.6761 0.123503 12.1085 0.0280689 12.642C0.0224551 12.6701 0.0168413 12.7038 0.00561377 12.7318L0 12.7487L0.0112275 13.2429C0.0224551 13.2878 0.0336826 13.3271 0.0392964 13.3664C0.224551 14.2257 0.858907 14.8266 1.74027 14.9726C1.76834 14.9782 1.79079 14.9894 1.81325 14.995H2.25674L2.34656 14.9782C2.41392 14.967 2.47567 14.9501 2.53743 14.9333C3.36265 14.6862 3.86228 14.1527 4.01385 13.3552C4.16542 12.5577 3.9128 11.8895 3.25599 11.356C3.14933 11.2717 3.10442 11.1762 3.10442 11.0471C3.11003 10.4911 3.10442 9.94075 3.10442 9.38478V8.58733L3.25599 8.57609C3.29528 8.57609 3.32335 8.57048 3.35704 8.57048H4.01385C4.53593 8.57048 5.06362 8.57048 5.5857 8.57048C5.73728 8.57048 5.81587 8.63787 5.87762 8.71088C6.00112 8.85127 6.14147 8.99167 6.28743 9.11522C6.38286 9.19946 6.42216 9.28369 6.42216 9.39601C6.41654 9.94637 6.41654 10.4967 6.42216 11.0471C6.42216 11.1819 6.37725 11.2717 6.2762 11.3447C5.60816 11.8502 5.31624 12.6757 5.53518 13.4563C5.77096 14.2931 6.32111 14.7985 7.18563 14.967C7.2137 14.9726 7.23615 14.9838 7.25299 14.9894H7.71894C7.76946 14.9726 7.81998 14.9613 7.87612 14.9501C7.99401 14.922 8.1119 14.894 8.21856 14.849C8.94274 14.557 9.375 14.0403 9.49289 13.3103C9.62201 12.5297 9.36377 11.867 8.7238 11.3503C8.61714 11.2605 8.57223 11.1706 8.57223 11.0415C8.57784 10.4967 8.57784 9.95198 8.57223 9.40724C8.57223 9.25 8.64521 9.17138 8.71819 9.09837C8.85853 8.97482 8.99326 8.84004 9.11677 8.69964C9.20097 8.60417 9.29079 8.55925 9.40868 8.55925C9.40868 8.55925 9.40868 8.55925 9.4143 8.55925C10.0262 8.56486 10.6437 8.55925 11.2556 8.55925C12.6422 8.55925 13.7481 7.64386 14.0007 6.28482C14.0344 6.10511 14.04 5.91417 14.04 5.77377C14.0457 5.16164 14.0457 4.5439 14.04 3.93177C14.04 3.8363 14.0569 3.72959 14.1804 3.62851C14.9102 3.10062 15.1853 2.16838 14.8765 1.33162ZM13.6415 3.13431C13.3945 3.26909 13.3103 3.43195 13.3159 3.72959C13.3271 4.23502 13.3271 4.75168 13.3215 5.2515V5.78501C13.3215 6.96434 12.4345 7.85165 11.2556 7.85165H10.9637C10.335 7.85165 9.7006 7.85165 9.07186 7.85165H9.06624C8.86976 7.85165 8.74626 7.92465 8.65644 8.09875C8.53293 8.35146 8.34207 8.5424 8.08945 8.66595C7.92103 8.75019 7.84805 8.87374 7.84805 9.08152C7.85367 9.8509 7.85367 10.6034 7.84805 11.356C7.84805 11.5918 7.92665 11.7322 8.12874 11.8389C8.70135 12.1478 8.94835 12.8161 8.71819 13.4338C8.49364 14.0347 7.87051 14.3773 7.24177 14.2481C6.61864 14.1246 6.16954 13.5518 6.20322 12.9172C6.22567 12.4398 6.45584 12.0692 6.86564 11.8445C7.07335 11.7322 7.15756 11.5862 7.15195 11.3503C7.14072 10.6203 7.14633 9.91829 7.15195 9.07591C7.15195 8.87374 7.07897 8.75019 6.90494 8.66033C6.65793 8.53678 6.46707 8.34584 6.33795 8.09313C6.25374 7.92465 6.13024 7.85165 5.92814 7.85165H5.92253C5.55202 7.85726 5.18713 7.85726 4.81662 7.85165H2.82934C2.50374 7.85165 2.37463 7.9752 2.37463 8.30092V9.25C2.37463 9.96321 2.37463 10.6708 2.37463 11.3784C2.37463 11.5974 2.4476 11.7266 2.63847 11.8277C3.17178 12.1141 3.43563 12.7206 3.28406 13.3047C3.13248 13.8775 2.61602 14.2762 2.02096 14.2762C2.01534 14.2762 2.01534 14.2762 2.00973 14.2762C1.43151 14.2706 0.920659 13.8719 0.763473 13.3103C0.606287 12.7375 0.864521 12.1253 1.36976 11.8558C1.59993 11.7378 1.68413 11.5862 1.68413 11.3223C1.67852 8.92428 1.6729 6.4196 1.68413 3.65097C1.68413 3.40949 1.60554 3.27471 1.40344 3.16801C0.881362 2.88721 0.617515 2.28631 0.769087 1.70788C0.915045 1.13506 1.4259 0.730718 2.02096 0.730718H2.02657C2.6104 0.730718 3.12687 1.12383 3.28406 1.69103C3.44686 2.26385 3.18862 2.8816 2.67777 3.15678C2.45883 3.27471 2.37463 3.42072 2.37463 3.67344C2.38024 4.38104 2.38024 5.08302 2.38024 5.79062V6.70601C2.38024 7.01488 2.51497 7.14966 2.82373 7.14966H3.76684C4.4854 7.14966 5.20397 7.14966 5.91692 7.14966C5.91692 7.14966 5.91692 7.14966 5.92253 7.14966C6.13585 7.14966 6.26497 7.07104 6.35479 6.89133C6.47268 6.64985 6.65793 6.47014 6.89933 6.34659C7.07335 6.25674 7.15195 6.12757 7.15195 5.91979C7.14633 5.06617 7.14633 4.31365 7.15195 3.61166C7.15195 3.39826 7.07897 3.26909 6.88248 3.16239C6.30988 2.85352 6.05165 2.18523 6.2762 1.5731C6.49513 0.966584 7.11265 0.6184 7.74701 0.741949C8.38136 0.865499 8.83046 1.43832 8.80239 2.07853C8.77994 2.56149 8.54416 2.93214 8.12874 3.15678C7.93226 3.26348 7.84805 3.39826 7.85367 3.62851C7.85928 4.33049 7.85928 5.06617 7.85367 5.89171C7.85367 6.11634 7.92665 6.25112 8.1119 6.34098C8.35329 6.45891 8.53293 6.64423 8.65644 6.89133C8.74626 7.07104 8.87537 7.14966 9.07747 7.14405C9.50412 7.14405 9.93638 7.14405 10.363 7.14405C10.6606 7.14405 10.9637 7.14405 11.2612 7.14405C12.0472 7.14405 12.6198 6.57123 12.6198 5.77939C12.6198 5.52106 12.6198 5.25711 12.6198 4.99878C12.6198 4.5439 12.6198 4.08901 12.6254 3.63974C12.6254 3.40387 12.5468 3.26348 12.3391 3.15678C11.8226 2.88721 11.5644 2.28631 11.7047 1.70226C11.8394 1.14629 12.3615 0.736334 12.9397 0.725102C13.5292 0.725102 14.0513 1.10137 14.2141 1.66857C14.3825 2.247 14.1411 2.86475 13.6415 3.13431Z" fill="#979797"/>
</svg>
