<svg width="29" height="30" viewBox="0 0 29 30" fill="none" xmlns="http://www.w3.org/2000/svg">
<g clip-path="url(#clip0_667_1659)">
<path d="M21.3907 0.842438C20.3998 0.428683 19.2944 0.172696 18.1047 0.0822108C18.0343 0.0767972 17.9701 0.0613297 17.9082 0.0466356C17.8881 0.0419953 17.868 0.0373551 17.8478 0.0327148H16.2536C16.1275 0.0505025 16.0014 0.0675167 15.8753 0.0845309C15.6023 0.121653 15.3199 0.159548 15.0461 0.208271C12.5839 0.647548 10.4451 1.75734 8.68837 3.50671C8.4826 3.71166 8.40448 3.99703 8.47796 4.27158C8.54835 4.53298 8.74561 4.73019 9.00552 4.79902C9.30874 4.87945 9.57716 4.7882 9.87498 4.50359C11.4282 3.01639 13.3358 2.05045 15.3903 1.70939C15.9418 1.61813 16.498 1.5725 17.055 1.5725C18.5696 1.5725 20.0865 1.90892 21.5152 2.57016C23.579 3.5245 25.2963 5.20659 26.3521 7.3063C27.4073 9.40524 27.729 11.7795 27.258 13.9914C26.8294 16.0068 25.8903 17.767 24.4678 19.224C24.293 19.4034 24.1986 19.6238 24.2033 19.845C24.2071 20.043 24.2907 20.2286 24.4392 20.3694C24.7571 20.671 25.2321 20.6424 25.567 20.3005C27.1791 18.6587 28.238 16.7113 28.713 14.5142C28.8004 14.1089 28.86 13.6882 28.918 13.2806C28.9443 13.0927 28.9713 12.904 29.0007 12.7168V11.177C28.9791 11.027 28.9597 10.8754 28.9396 10.7246C28.8979 10.4021 28.8553 10.068 28.788 9.74862C27.8954 5.51749 25.4069 2.52066 21.3907 0.842438Z" fill="#F36F20"/>
<path d="M22.5239 21.7388C22.1248 21.5045 21.7156 21.2725 21.3187 21.0482C20.6504 20.6693 19.9589 20.2779 19.2952 19.8634C18.7165 19.5023 18.0559 19.3955 17.4348 19.5626C16.8206 19.7281 16.3116 20.1426 16.0007 20.7311C15.7632 21.1805 15.3857 21.4805 14.9378 21.5764C14.4721 21.6754 13.9802 21.5463 13.5547 21.213C12.8075 20.6275 12.2103 20.1341 11.6742 19.66C10.2857 18.4304 8.99238 17.0305 7.82898 15.5008C7.49945 15.0677 7.3664 14.5813 7.45381 14.1319C7.54277 13.678 7.83749 13.2913 8.3078 13.0121L8.34106 12.992C8.42151 12.944 8.49732 12.8992 8.57158 12.8505C9.51993 12.2171 9.83863 11.0091 9.3134 10.0416C8.66982 8.85675 7.96744 7.63791 7.16528 6.31699C6.78006 5.68282 6.09702 5.31934 5.38537 5.31934C5.13783 5.31934 4.88721 5.36342 4.64432 5.45468C3.79574 5.77408 2.94949 6.14917 2.13108 6.51188L2.01815 6.56215C1.47435 6.80267 1.03885 7.16538 0.724016 7.63791C0.136126 8.52188 -0.0851062 9.54583 0.0278306 10.8621C0.140767 12.1807 0.541461 13.5194 1.2887 15.0762C2.49542 17.5897 4.20726 19.9454 6.52247 22.2779C9.10609 24.8811 11.706 26.7441 14.4706 27.9738C16.0355 28.6698 17.4356 29.0063 18.8759 29.0325C18.9208 29.0287 18.9749 29.0256 19.0345 29.0217C19.1969 29.0117 19.3988 28.9985 19.5984 28.9676C21.0449 28.7464 21.9964 28.0813 22.5084 26.9344C22.8635 26.1394 23.1961 25.3536 23.4986 24.6003C23.965 23.4395 23.5999 22.3699 22.5239 21.7388ZM22.0582 24.0505C21.9608 24.291 21.8571 24.5331 21.7573 24.7674C21.5902 25.1595 21.417 25.564 21.27 25.9684C20.9157 26.9421 20.1607 27.4355 18.9618 27.4788C18.8929 27.4812 18.8248 27.4827 18.7568 27.4827C17.5222 27.4827 16.3905 27.0921 15.5311 26.7449C13.4549 25.9058 11.4383 24.6235 9.36677 22.8247C6.72049 20.527 4.70697 18.1117 3.21249 15.4428C2.36237 13.9239 1.85957 12.6014 1.63138 11.2805C1.49291 10.4793 1.50529 9.82888 1.6716 9.23338C1.85648 8.56828 2.21463 8.13365 2.76616 7.90473C3.10497 7.76397 3.44301 7.62013 3.78027 7.47628C4.19721 7.29917 4.62884 7.11511 5.05584 6.94033C5.43023 6.78643 5.72572 6.89006 5.93303 7.24813C6.63541 8.45614 7.27435 9.56207 7.88545 10.6286C8.00457 10.8366 8.04015 11.0191 7.99451 11.1862C7.94423 11.3694 7.80268 11.5218 7.54818 11.6664C6.66789 12.1668 6.12951 12.8969 5.94696 13.835C5.76904 14.7475 5.95779 15.5812 6.507 16.3113C8.27144 18.657 10.3608 20.7458 12.717 22.5215C13.3056 22.9654 13.9585 23.1487 14.903 23.1348C15.8514 23.0915 16.727 22.5223 17.3056 21.5718C17.6916 20.9384 17.9407 20.8734 18.5781 21.2416L19.0925 21.5385C19.9643 22.0412 20.836 22.5447 21.7078 23.0489C22.1603 23.3096 22.2516 23.5717 22.0582 24.0505Z" fill="#F36F20"/>
<path d="M14.5085 13.9164V14.8592H10.9502C10.9889 14.5026 11.1041 14.1654 11.2968 13.846C11.4894 13.5274 11.8699 13.1036 12.4385 12.5769C12.8964 12.1508 13.1765 11.8616 13.2801 11.71C13.4201 11.5004 13.4897 11.2931 13.4897 11.089C13.4897 10.8624 13.4286 10.6891 13.3072 10.5669C13.1857 10.4455 13.0179 10.3844 12.8036 10.3844C12.5917 10.3844 12.423 10.4478 12.2977 10.5762C12.1724 10.7038 12.1005 10.9157 12.0811 11.2119L11.0693 11.1106C11.1297 10.5522 11.3184 10.1508 11.6363 9.908C11.9543 9.66516 12.3519 9.54297 12.8284 9.54297C13.3505 9.54297 13.7613 9.68372 14.0598 9.96523C14.3584 10.2467 14.5077 10.5971 14.5077 11.0163C14.5077 11.2545 14.4652 11.4818 14.3793 11.6968C14.2934 11.9126 14.1581 12.1377 13.9732 12.3743C13.8502 12.5305 13.629 12.7556 13.3087 13.0495C12.9885 13.3433 12.7858 13.5382 12.7 13.6349C12.6141 13.7316 12.5453 13.8252 12.4919 13.9164H14.5085Z" fill="#F36F20"/>
<path d="M17.1849 14.8592V13.7935H15.0175V12.9048L17.3149 9.54297H18.1673V12.9017H18.8248V13.7935H18.1673V14.8592H17.1849ZM17.1849 12.9017V11.0928L15.9674 12.9025H17.1849V12.9017Z" fill="#F36F20"/>
<path d="M18.9842 14.9496L20.2954 9.47485H21.0573L19.7315 14.9496H18.9842Z" fill="#F36F20"/>
<path d="M21.3644 10.5797V9.63696H24.836V10.374C24.5498 10.6555 24.2582 11.06 23.9619 11.5874C23.6657 12.1148 23.4398 12.6748 23.2843 13.2687C23.1288 13.8619 23.0523 14.3924 23.0554 14.8595H22.0768C22.0938 14.1279 22.2447 13.3816 22.5301 12.6206C22.8156 11.8596 23.1961 11.1798 23.6734 10.5805H21.3644V10.5797Z" fill="#F36F20"/>
</g>
<defs>
<clipPath id="clip0_667_1659">
<rect width="29" height="29" fill="white" transform="translate(0 0.0334473)"/>
</clipPath>
</defs>
</svg>
