<svg width="30" height="31" viewBox="0 0 30 31" fill="none" xmlns="http://www.w3.org/2000/svg">
<g clip-path="url(#clip0_602_9290)">
<path d="M29.842 23.1744C29.4164 20.7747 28.9978 18.3743 28.5761 15.9739C28.1287 13.4295 27.6742 10.8866 27.2338 8.34144C26.9995 6.98865 26.2405 6.09591 24.9793 5.59048C24.1953 5.27595 23.4128 4.95829 22.6311 4.63828C21.8494 4.31906 21.0677 3.99749 20.2868 3.67748C19.9081 3.52178 19.5286 3.36686 19.1491 3.21195C18.9179 3.11806 18.6899 3.01634 18.4548 2.93263C18.3338 2.88959 18.2112 2.85125 18.0863 2.82074C17.9761 2.79414 17.8543 2.7871 17.7606 2.7159C17.6614 2.64079 17.624 2.51717 17.6083 2.39902C17.5388 1.88732 17.4342 1.38032 17.3452 0.871754C17.2694 0.441428 17.0781 0.0995139 16.5908 0.033009C16.4542 0.033009 16.3183 0.033009 16.1816 0.033009C16.0309 0.0885602 15.8661 0.0956019 15.7365 0.220788C15.4835 0.466465 15.3937 0.760652 15.4468 1.09709C15.5343 1.64478 15.6248 2.19325 15.7373 2.73624C15.7615 2.8536 15.7693 2.98426 15.6982 3.08754C15.6202 3.20178 15.489 3.2542 15.3773 3.32696C15.0712 3.52491 14.8439 3.82223 14.5339 4.01392C14.3199 4.14615 14.1177 3.96541 13.9396 3.84805C13.5843 3.61332 13.5843 3.61332 13.6624 3.19473C13.7897 2.5156 13.9053 1.83334 14.0177 1.15186C14.1154 0.558789 13.8608 0.169149 13.3196 0.0322266C13.1634 0.0322266 13.008 0.0322266 12.8518 0.0322266C12.4247 0.142547 12.2084 0.435168 12.1342 0.856106C12.0194 1.50942 11.8827 2.1596 11.7976 2.81683C11.775 2.98896 11.7227 3.17674 11.5774 3.28549C11.422 3.40285 11.2151 3.41224 11.0347 3.46545C10.7856 3.53821 10.5521 3.65323 10.3123 3.74946C10.0468 3.85587 9.78211 3.96228 9.51661 4.06869C8.9278 4.30498 8.33978 4.54205 7.75176 4.77912C7.16374 5.01697 6.57572 5.25482 5.98848 5.49424C5.40124 5.73366 4.814 5.97308 4.22676 6.21406C4.20021 6.22501 4.17366 6.23597 4.14789 6.24692C3.07336 6.6882 2.39632 7.48391 2.13862 8.62545C2.04413 9.04404 1.98322 9.46967 1.90825 9.89218C1.31008 13.273 0.722841 16.6553 0.125449 20.0369C0.00440927 20.72 -0.0783666 21.4234 0.123888 22.0947C0.532301 23.4467 1.48422 24.2166 2.86174 24.4599C5.52696 24.9309 8.19219 25.4027 10.8582 25.8698C11.087 25.9097 11.1924 26.0099 11.2323 26.2367C11.308 26.6686 11.365 27.1052 11.465 27.5324C11.807 28.9916 13.0861 29.9634 14.234 30.0221C14.7619 30.0487 15.2836 30.0275 15.8021 29.9376C19.3318 29.3249 22.8599 28.6974 26.3873 28.0707C26.923 27.9753 27.4758 27.9346 27.9803 27.7139C29.1048 27.2234 29.8061 26.3917 29.9701 25.1476C30.0528 24.5154 29.9529 23.8003 29.842 23.1744ZM8.26482 23.5484C6.55151 23.2448 4.83977 22.9358 3.12568 22.6361C2.18626 22.4718 1.6857 21.7692 1.85203 20.8232C2.53766 16.919 3.22408 13.0156 3.90971 9.11133C4.00186 8.58477 4.27361 8.18261 4.77105 7.9784C6.97008 7.07784 9.17379 6.18824 11.4322 5.27204C11.3658 5.66872 11.3049 6.01142 11.251 6.35489C11.1768 6.8306 11.4798 7.27344 11.9312 7.35716C12.4184 7.44792 12.8573 7.16782 12.9635 6.68194C13.04 6.3322 13.0931 5.97699 13.1587 5.61864C13.2884 5.64759 13.3555 5.75087 13.4383 5.82677C15.0696 7.30631 16.6947 8.79289 18.3299 10.2677C18.8008 10.6926 18.9726 11.1972 18.8633 11.8161C18.3494 14.722 17.8387 17.6279 17.3264 20.5345C17.1593 21.4844 16.9836 22.4319 16.8251 23.3833C16.6556 24.4028 15.9794 24.9082 14.9564 24.7306C12.7246 24.3433 10.4951 23.9435 8.26482 23.5484ZM27.0151 26.0857C25.2846 26.4026 23.5518 26.707 21.8198 27.0129C19.5419 27.4151 17.2624 27.8125 14.9845 28.2162C14.1419 28.3657 13.4297 27.9002 13.2439 27.0591C13.183 26.7844 13.14 26.5067 13.0814 26.189C13.7436 26.2986 14.3621 26.4261 14.9876 26.4996C16.6853 26.6999 18.2089 25.5748 18.5118 23.8833C19.1295 20.4328 19.7277 16.9785 20.3345 13.5257C20.4274 12.9983 20.5399 12.4733 20.6133 11.9437C20.7749 10.7771 20.4118 9.79203 19.5403 8.99944C18.3221 7.89077 17.1062 6.78131 15.881 5.68045C15.7123 5.52945 15.6779 5.43478 15.8786 5.29394C16.0137 5.20005 16.1277 5.07643 16.2511 4.96533C16.7322 4.53344 17.2765 4.42781 17.8746 4.67193C20.0674 5.56544 22.2578 6.46443 24.4491 7.36186C25.0105 7.59189 25.3135 8.01361 25.4182 8.61137C26.1858 12.9952 26.9612 17.3767 27.7343 21.7598C27.8897 22.6424 28.0475 23.5241 28.1974 24.4075C28.3309 25.1969 27.8163 25.9394 27.0151 26.0857Z" fill="#F36F20"/>
<path d="M11.2747 13.5973C11.4082 12.8415 11.5433 12.0857 11.6831 11.2994C11.7963 11.3573 11.8822 11.398 11.9666 11.4441C12.2188 11.5818 12.3992 11.8032 12.6069 11.9934C12.8552 12.2211 13.1949 12.2117 13.4206 11.9855C13.6408 11.7649 13.658 11.4418 13.444 11.1937C13.1621 10.8683 12.8427 10.5874 12.4617 10.3761C12.2789 10.2744 11.9861 10.2791 11.9236 10.089C11.8643 9.90825 11.972 9.67274 12.0017 9.46071C12.0493 9.11957 11.8455 8.83399 11.5168 8.7761C11.227 8.72446 10.9397 8.91928 10.8639 9.22833C10.8202 9.4075 10.771 9.59059 10.7632 9.77367C10.7538 9.98492 10.6468 10.024 10.468 10.035C9.68085 10.0827 9.0616 10.4497 8.58915 11.0693C7.92616 11.9386 7.6427 13.4706 8.90229 14.5002C9.1514 14.7036 9.39582 14.9118 9.66367 15.0894C9.75738 15.152 9.81127 15.2099 9.78628 15.3484C9.55591 16.6026 9.33413 17.8591 9.12017 19.1164C9.09283 19.2776 9.05379 19.298 8.89995 19.2557C8.41501 19.1227 8.02846 18.8403 7.663 18.5109C7.35845 18.2362 7.02266 18.2362 6.78448 18.4968C6.55334 18.7495 6.59082 19.1016 6.87897 19.3739C7.39593 19.8629 7.97927 20.2416 8.68052 20.4004C8.86481 20.4419 8.88746 20.5138 8.84529 20.6805C8.79297 20.887 8.76095 21.1014 8.74611 21.315C8.72425 21.6233 8.92963 21.8776 9.21466 21.9261C9.52233 21.9785 9.7933 21.8087 9.87608 21.4919C9.92996 21.2853 9.96901 21.0725 9.99009 20.8604C10.0088 20.6672 10.0955 20.6046 10.2845 20.5952C10.9045 20.5639 11.4551 20.3347 11.947 19.9607C13.6518 18.6642 13.6275 16.2442 11.8955 15.0972C11.6932 14.9634 11.4824 14.8414 11.2684 14.7256C11.1419 14.6575 11.0849 14.5918 11.1255 14.4306C11.195 14.1575 11.2255 13.8751 11.2747 13.5973ZM10.0354 13.9118C9.55357 13.5418 9.09674 13.2038 9.21622 12.5223C9.3232 11.9104 9.64649 11.4762 10.2384 11.254C10.461 11.1703 10.5188 11.2 10.4688 11.4566C10.3118 12.2625 10.1814 13.0731 10.0354 13.9118ZM12.0368 17.4601C12.0337 18.3489 11.3653 19.1845 10.4969 19.3919C10.3329 19.431 10.2415 19.431 10.2822 19.2119C10.4766 18.1596 10.6609 17.1049 10.8491 16.0517C10.8647 15.9665 10.835 15.846 11.0092 15.9219C11.623 16.1894 12.0392 16.8013 12.0368 17.4601Z" fill="#F36F20"/>
</g>
<defs>
<clipPath id="clip0_602_9290">
<rect width="30" height="30" fill="white" transform="translate(0 0.0334473)"/>
</clipPath>
</defs>
</svg>
