<svg width="27" height="31" viewBox="0 0 27 31" fill="none" xmlns="http://www.w3.org/2000/svg">
<g clip-path="url(#clip0_602_9297)">
<path d="M26.561 23.9198C26.5414 22.0507 25.2539 20.3853 23.4299 19.8707C23.0524 19.7645 22.6647 19.6777 22.2896 19.594C22.0186 19.5336 21.739 19.4708 21.4665 19.4019C21.295 19.3585 21.1188 19.3267 20.9488 19.2957C20.5925 19.2314 20.2565 19.1701 19.9557 19.0097C19.4232 18.7253 18.8891 18.4208 18.373 18.1271C18.0182 17.9248 17.6517 17.7163 17.2883 17.5156C17.2021 17.4676 17.1857 17.4397 17.1872 17.3382C17.1959 16.7166 17.1959 16.0913 17.1872 15.479C17.1857 15.3783 17.2139 15.3093 17.2898 15.2233C17.9148 14.5166 18.3244 13.6788 18.5069 12.7334C18.5319 12.6047 18.5601 12.4591 18.5876 12.4366C18.6142 12.4141 18.7528 12.4095 18.8993 12.404L18.9243 12.4033C19.778 12.373 20.41 11.9662 20.7522 11.2253C21.1141 10.4434 21.0036 9.69402 20.4421 9.11513C20.175 8.83924 20.1664 8.61451 20.2424 8.31925C20.2518 8.2836 20.2581 8.25028 20.2628 8.21773C20.522 6.41286 20.4938 5.03655 20.1696 3.75555C19.6762 1.80577 18.5022 0.602263 16.6821 0.179913C16.5826 0.156665 16.484 0.145041 16.3884 0.133416C16.2435 0.115592 16.1057 0.0993183 15.9835 0.0458465L15.9537 0.0334473H15.4909L15.4721 0.038097C15.3006 0.0814944 15.1345 0.0814944 14.963 0.038097L14.9442 0.0334473H14.396L14.3514 0.0729699C14.3459 0.0776196 14.3404 0.0830443 14.3349 0.0892439C13.0975 0.217111 11.8084 0.553441 10.2836 1.14551C10.0291 1.2447 9.78393 1.24315 9.55759 1.22688C8.23403 1.13156 6.66769 1.64768 6.23538 3.37505C6.13905 3.76097 6.09284 4.18642 6.09362 4.67619C6.09519 5.34653 6.09519 6.01609 6.09519 6.68642C6.09519 7.42728 6.09519 8.16736 6.09676 8.90821C6.09676 9.05701 6.06543 9.1624 5.98868 9.27167C5.59944 9.82576 5.51643 10.5007 5.76077 11.1238C6.00512 11.7461 6.54943 12.2064 7.21669 12.356C7.46182 12.411 7.70304 12.4064 7.93486 12.4025H7.95287C7.98733 12.4017 8.00534 12.4033 8.01552 12.4048C8.01787 12.4118 8.02101 12.425 8.02336 12.4443C8.1471 13.4913 8.57784 14.436 9.30227 15.2528C9.35866 15.3163 9.37903 15.3721 9.37824 15.4604C9.37354 16.0603 9.36884 16.7004 9.38059 17.3482C9.38216 17.442 9.36493 17.4699 9.27095 17.5218C8.53633 17.9302 7.79389 18.3518 7.07494 18.7594L6.6301 19.0121C6.53846 19.064 6.43743 19.102 6.32074 19.1283C5.9503 19.2112 5.58065 19.2972 5.21099 19.3825C4.68 19.5057 4.13021 19.6328 3.58904 19.7498C1.37893 20.2287 0.0036844 21.9081 0.000551718 24.1322C-0.00101462 25.3148 -0.000231453 26.4958 -0.000231453 27.6776V29.1771C-0.000231453 29.8413 0.190862 30.0327 0.852642 30.0327H23.0273H23.8364C24.1066 30.0327 24.376 30.0327 24.6462 30.0327C25.044 30.0327 25.4426 30.0327 25.8405 30.0311C26.3284 30.0296 26.5657 29.7948 26.5665 29.312C26.5665 28.8315 26.5681 28.3518 26.5688 27.8713C26.572 26.5772 26.5751 25.2373 26.561 23.9198ZM22.3491 27.1576L22.3476 26.75C22.3468 26.3013 22.1103 26.0184 21.7304 26.0138C21.7273 26.0138 21.7234 26.0138 21.7202 26.0138C21.5534 26.0138 21.4077 26.0688 21.2997 26.1742C21.1681 26.302 21.0984 26.4973 21.0976 26.7376L21.0968 26.9561C21.0953 27.5311 21.0929 28.1247 21.1 28.7098C21.1007 28.7571 21.0984 28.7827 21.0968 28.7966C21.0851 28.7989 21.0647 28.8013 21.0303 28.8013C20.3387 28.7966 19.6182 28.7935 18.8554 28.7935C18.1451 28.7935 17.3979 28.7958 16.6069 28.7997C16.5137 28.8013 16.4981 28.7896 16.455 28.6928C15.9827 27.6295 15.4932 26.5415 14.9576 25.3675C14.909 25.2621 14.9082 25.1869 14.9536 25.0815C15.1917 24.5243 15.3946 24.0229 15.5755 23.5494C15.5778 23.544 15.5794 23.5386 15.5817 23.5339C15.5833 23.5347 15.5849 23.5355 15.5857 23.537C15.7368 23.6339 15.8942 23.7207 16.0477 23.8044L16.1511 23.8609C16.5662 24.0903 16.8137 24.0462 17.1324 23.685L17.7801 22.9535C18.4975 22.1436 19.2391 21.3059 19.9628 20.4767C20.0536 20.3729 20.0975 20.3574 20.2252 20.3892C20.652 20.4938 21.0874 20.5922 21.508 20.6875C22.0014 20.7991 22.5112 20.9146 23.0093 21.0401C24.3446 21.3788 25.2923 22.5706 25.3134 23.9384C25.322 24.4755 25.3197 25.0234 25.3173 25.5527C25.3166 25.796 25.3158 26.0393 25.3158 26.2834L25.3173 26.433C25.3173 26.5989 25.3166 26.7647 25.3166 26.9305C25.315 27.5164 25.3142 28.1232 25.322 28.7191C25.3228 28.7602 25.3197 28.7834 25.3173 28.7958C25.3056 28.7982 25.2821 28.8005 25.2414 28.8005C24.3431 28.7904 23.3962 28.7904 22.4274 28.7997C22.3828 28.8005 22.3601 28.7974 22.3476 28.7951C22.3452 28.7834 22.3429 28.7617 22.3436 28.7238C22.353 28.2007 22.3515 27.6706 22.3491 27.1576ZM5.471 27.0778L5.47022 26.7662C5.46944 26.5043 5.40052 26.3044 5.26424 26.1719C5.15538 26.0657 5.00736 26.0091 4.83585 26.0138C4.65102 26.0169 4.22028 26.0967 4.21949 26.7794L4.21871 27.17C4.21793 27.6784 4.21636 28.2046 4.22184 28.723C4.22184 28.7377 4.22263 28.7749 4.22028 28.7989C4.20931 28.8005 4.19365 28.802 4.16937 28.8013C3.7308 28.7958 3.27734 28.7927 2.77689 28.7927C2.32814 28.7927 1.84257 28.7951 1.29592 28.7997C1.27399 28.7997 1.25832 28.7989 1.24814 28.7982C1.24658 28.7873 1.24579 28.7718 1.24658 28.7486C1.25284 28.1325 1.25206 27.5063 1.25128 26.9011C1.25128 26.6856 1.25049 26.471 1.25049 26.2555V25.6224C1.25049 25.1474 1.25049 24.6731 1.25049 24.198C1.25128 22.5025 2.16994 21.3571 3.83731 20.9711C4.12943 20.9037 4.42234 20.8371 4.71524 20.7712C5.25798 20.648 5.81951 20.5209 6.37008 20.3868C6.47973 20.3605 6.51105 20.3706 6.58467 20.4542C7.26446 21.2308 7.9607 22.0173 8.63345 22.7776C8.89424 23.072 9.15504 23.3673 9.41583 23.6618C9.76826 24.0601 9.99381 24.0973 10.4661 23.8323L10.6008 23.7571C10.7269 23.6874 10.8577 23.6145 10.9845 23.5386C11.2054 24.1089 11.4411 24.6801 11.6432 25.1636C11.6604 25.2055 11.662 25.2357 11.6259 25.3148C11.1662 26.3338 10.6251 27.535 10.0988 28.7199C10.0651 28.7966 10.0565 28.7989 9.98755 28.7989C8.32879 28.7927 6.8627 28.7927 5.50624 28.7997C5.48745 28.7997 5.47648 28.7989 5.46709 28.7982C5.4663 28.7858 5.46552 28.7672 5.46552 28.7385C5.47335 28.1844 5.47257 27.6218 5.471 27.0778ZM7.34591 6.13388C7.34591 5.63094 7.34591 5.12799 7.34591 4.62505C7.34591 4.40109 7.36236 4.17557 7.39525 3.95549C7.53544 3.02244 8.13378 2.46448 8.97569 2.46448C9.03286 2.46448 9.09082 2.4668 9.15034 2.47223C9.8967 2.53732 10.5381 2.37148 11.2727 2.10102C12.8524 1.52058 14.1008 1.26407 15.3162 1.27027C16.4503 1.2757 17.2804 1.56011 17.9297 2.16457C18.5014 2.69696 18.8546 3.39752 19.0418 4.36931C19.2626 5.51779 19.2438 6.74532 18.9823 8.3487C18.9791 8.36962 18.9752 8.3828 18.9721 8.39055C18.9666 8.39055 18.958 8.39055 18.9462 8.389C18.8374 8.37505 18.7348 8.37427 18.6416 8.38745C18.6204 8.39055 18.6056 8.39132 18.5954 8.39132C18.5938 8.37815 18.5922 8.358 18.5922 8.32623C18.6024 7.77678 18.6001 7.21882 18.5977 6.67867L18.5962 6.32297C18.5954 6.05561 18.5186 5.85877 18.3683 5.73788C18.2163 5.61544 18.001 5.58211 17.7284 5.63869C17.3407 5.71851 16.9539 5.80065 16.567 5.8828C15.6937 6.06801 14.7907 6.2602 13.8979 6.41829C12.24 6.71277 10.6055 6.48571 9.03913 5.74253C9.02425 5.73556 9.00937 5.72858 8.99527 5.72083C8.96473 5.70533 8.9334 5.69061 8.90207 5.67666C8.66164 5.57436 8.4306 5.58211 8.25282 5.69681C8.07426 5.81228 7.97402 6.01919 7.97167 6.28035L7.97088 6.36327C7.96462 6.9933 7.95835 7.64427 7.97637 8.28593C7.97793 8.3456 7.97245 8.37427 7.96932 8.38667C7.95757 8.389 7.92938 8.3921 7.86985 8.38745C7.66936 8.37117 7.49785 8.37737 7.34356 8.40759C7.34356 8.40527 7.34356 8.40217 7.34435 8.39985C7.34591 8.37737 7.3467 8.35567 7.3467 8.3332C7.34591 7.60009 7.34591 6.86699 7.34591 6.13388ZM10.6454 7.58847C12.0363 7.87985 13.5103 7.83335 15.1502 7.44743C15.6875 7.32111 16.2177 7.21339 16.78 7.09947C16.968 7.0615 17.1567 7.02353 17.3462 6.98401V8.86792C17.3462 9.17325 17.3462 9.47858 17.347 9.78469C17.3478 10.4356 17.3478 11.0866 17.3462 11.7368C17.3384 13.8873 15.8214 15.555 13.6559 15.7914C11.64 16.013 9.77061 14.6452 9.31011 12.6125C9.25137 12.3521 9.22239 12.1196 9.22239 11.9003C9.22161 10.3248 9.22161 8.74857 9.22161 7.17309C9.76435 7.36761 10.21 7.49702 10.6454 7.58847ZM13.8823 24.4305C13.8118 24.6243 13.7585 24.6483 13.6238 24.625C13.5745 24.6165 13.5259 24.6142 13.4781 24.6142C13.4413 24.6142 13.4053 24.6157 13.3693 24.6173C13.338 24.6188 13.3058 24.6204 13.2745 24.6204C13.0192 24.6204 12.8657 24.6204 12.8007 24.5778C12.7365 24.5352 12.6801 24.3964 12.5869 24.1663C12.5399 24.05 12.4929 23.9338 12.4459 23.8168C12.3363 23.544 12.2235 23.2619 12.1045 22.986C12.0872 22.9465 12.0825 22.9263 12.081 22.917C12.0864 22.9116 12.0998 22.9023 12.1248 22.8892C12.4835 22.7024 12.8446 22.4994 13.1993 22.2855C13.2698 22.2428 13.3004 22.2444 13.3818 22.2924C13.699 22.4815 14.0428 22.6822 14.4031 22.8698C14.4657 22.9023 14.479 22.9194 14.4798 22.9194C14.4798 22.9202 14.483 22.9403 14.4555 23.0015C14.2323 23.5161 14.0444 23.9834 13.8823 24.4305ZM10.6282 16.4764V16.3416C12.4146 17.2824 14.1572 17.2831 15.9404 16.3431C15.9404 16.3888 15.9404 16.4338 15.9404 16.4787C15.9396 16.8236 15.9389 17.1491 15.9443 17.4784C15.9459 17.5567 15.9232 17.6102 15.859 17.6822C15.0938 18.5432 14.2049 19.5445 13.3325 20.541C13.3105 20.5658 13.2949 20.5813 13.2847 20.5914C13.2753 20.5829 13.2612 20.5689 13.244 20.5488C12.5908 19.7986 11.9204 19.0423 11.2719 18.3107L10.6955 17.6605C10.6431 17.6016 10.6266 17.5799 10.6266 17.5451C10.629 17.1925 10.6282 16.8445 10.6282 16.4764ZM18.8507 19.8583L18.2649 20.5193C17.6791 21.1804 17.0737 21.8639 16.4824 22.5396C16.4471 22.5792 16.4315 22.5885 16.4315 22.5892C16.4283 22.5892 16.4103 22.5861 16.3673 22.5606C15.7023 22.1754 14.9936 21.774 14.2613 21.3695C14.259 21.3679 14.2566 21.3671 14.2543 21.3656C14.2558 21.364 14.2574 21.3625 14.2582 21.3609C14.981 20.5534 15.747 19.6878 16.6688 18.6385C16.6844 18.6207 16.6954 18.6106 16.7009 18.606C16.7079 18.6083 16.7197 18.6137 16.7393 18.6246C17.2248 18.9043 17.7214 19.1841 18.2007 19.4553C18.4247 19.5816 18.6479 19.708 18.8711 19.8343C18.8648 19.842 18.8577 19.8506 18.8507 19.8583ZM9.86616 18.6037C9.87242 18.6091 9.88182 18.6184 9.8967 18.6354C10.4888 19.3089 11.0832 19.98 11.6776 20.6519L12.3097 21.3664C12.3097 21.3664 12.3089 21.3664 12.3089 21.3671C12.0943 21.4888 11.8789 21.6097 11.6643 21.7306C11.1772 22.0049 10.6736 22.2886 10.1802 22.5722C10.1575 22.5854 10.1442 22.5908 10.1371 22.5931C10.1317 22.5885 10.1223 22.5807 10.1089 22.5652C9.38764 21.7445 8.59742 20.851 7.69442 19.8351C8.33428 19.4786 9.02033 19.0903 9.85128 18.613C9.85676 18.6083 9.86224 18.6052 9.86616 18.6037ZM11.7011 28.2162C11.9909 27.5892 12.2642 26.998 12.5007 26.3749C12.666 25.9417 12.8626 25.8162 13.3419 25.8347C13.7444 25.851 13.8815 25.937 14.0083 26.2555C14.2378 26.8306 14.4994 27.4017 14.7524 27.9535C14.873 28.217 14.9936 28.4804 15.1111 28.7447C15.1165 28.7571 15.1228 28.7687 15.1291 28.7811H11.4411C11.528 28.592 11.615 28.4037 11.7011 28.2162ZM18.8726 9.62117C19.3441 9.6297 19.6957 9.9668 19.6895 10.4047C19.684 10.8363 19.3417 11.1571 18.8758 11.1664C18.7653 11.1688 18.6518 11.1711 18.6087 11.161C18.5977 11.1176 18.5977 11.0006 18.5977 10.8867V9.87536C18.5977 9.77306 18.5977 9.66844 18.6071 9.6266C18.651 9.6173 18.7638 9.61885 18.8726 9.62117ZM7.96932 11.1881C7.61063 11.2865 7.07102 11.0262 6.93083 10.6774C6.84155 10.4542 6.86583 10.2063 6.99662 9.99625C7.13054 9.78081 7.3514 9.6452 7.60201 9.6235C7.70774 9.6142 7.81582 9.6049 7.8863 9.6049C7.91606 9.6049 7.93877 9.60645 7.95287 9.61032C7.96932 9.65527 7.96932 9.80251 7.96932 9.94588V10.6154C7.9701 10.7929 7.9701 10.9773 7.96697 11.1571C7.96853 11.1672 7.96853 11.1773 7.96932 11.1881Z" fill="#F36F20"/>
</g>
<defs>
<clipPath id="clip0_602_9297">
<rect width="26.5714" height="30" fill="white" transform="translate(0 0.0334473)"/>
</clipPath>
</defs>
</svg>
