<svg width="24" height="15" viewBox="0 0 24 15" fill="none" xmlns="http://www.w3.org/2000/svg">
<path d="M22.436 6.11778C22.3588 6.04622 22.219 6.01279 22.1053 6.00751C21.78 5.99285 21.4529 6.00106 21.1271 6.00282C20.7447 6.00458 20.6133 6.13244 20.6115 6.5096C20.6091 6.91198 20.6109 7.31494 20.6109 7.71732C20.6109 7.88977 20.6109 8.06163 20.6109 8.23584H19.8339C19.8339 8.14668 19.8339 8.06808 19.8339 7.98948C19.8339 7.23576 19.8351 6.48145 19.8333 5.72772C19.8327 5.37931 19.702 5.25554 19.3372 5.25437C18.6089 5.25261 17.8805 5.24968 17.1528 5.2573C17.0184 5.25848 16.8938 5.19396 16.8202 5.08544C16.4116 4.47953 15.9885 3.88242 15.5806 3.27592C15.4517 3.0847 15.296 2.99496 15.0559 3.00024C14.5555 3.01138 14.0545 3.00375 13.5542 3.00375C13.3286 3.00375 13.1025 3.00375 12.8678 3.00375V2.25296C12.976 2.25296 13.066 2.25296 13.156 2.25296C13.922 2.25296 14.6881 2.25531 15.4547 2.25179C15.814 2.25003 15.9538 2.11395 15.9563 1.77375C15.9593 1.34204 15.9599 0.909749 15.9563 0.478044C15.9538 0.141361 15.8085 0.00117389 15.4523 0.000587329C12.9413 -0.00117234 10.4304 -0.00117234 7.91951 0.000587329C7.55047 0.000587329 7.40942 0.140188 7.40699 0.492121C7.40455 0.902124 7.40577 1.31213 7.40638 1.72213C7.40699 2.12509 7.53344 2.2512 7.94626 2.25238C8.7123 2.25472 9.47834 2.25296 10.245 2.25355C10.3259 2.25355 10.4073 2.26 10.4937 2.26352V3.00375C9.75436 3.00375 9.03452 3.00903 8.31529 3.00082C8.07819 2.99789 7.91768 3.07707 7.78818 3.27122C7.38875 3.86658 6.96985 4.45079 6.57163 5.04673C6.4701 5.19865 6.36553 5.26317 6.1728 5.25906C5.58125 5.24557 4.98969 5.25261 4.39814 5.25496C4.05524 5.25613 3.91845 5.38811 3.91176 5.72186C3.9069 5.97818 3.91054 6.23451 3.91054 6.49024C3.91054 6.94307 3.91054 7.3953 3.91054 7.85751H3.13234C3.13234 7.76131 3.13234 7.68154 3.13234 7.60235C3.13234 6.98002 3.13356 6.35827 3.13173 5.73593C3.13052 5.38165 3.00284 5.25613 2.64353 5.25437C2.18816 5.25202 1.7334 5.25906 1.27803 5.25144C1.07496 5.24792 0.932091 5.31948 0.822657 5.48313C0.600139 5.81453 0.362422 6.13714 0.147809 6.47265C0.0803237 6.57823 0.0493172 6.71372 0.031078 6.83983C-0.0832206 7.61761 0.107682 8.30798 0.654249 8.90744C0.750916 9.01361 0.795298 9.1972 0.797122 9.34619C0.809281 10.3052 0.803202 11.2636 0.80381 12.2227C0.804417 12.6168 0.927836 12.7412 1.32666 12.7441C1.75893 12.747 2.1912 12.747 2.62408 12.7441C3.00467 12.7412 3.13052 12.6198 3.13173 12.2567C3.13356 11.6273 3.13173 10.9979 3.13295 10.368C3.13295 10.2911 3.13964 10.2149 3.14328 10.1404H3.90933C3.90933 10.2342 3.90933 10.3128 3.90933 10.392C3.90933 10.9997 3.90811 11.6074 3.90993 12.2144C3.91115 12.6186 4.03579 12.7423 4.44921 12.7441C5.04015 12.7465 5.63049 12.7494 6.22083 12.7412C6.34851 12.7394 6.46767 12.8004 6.53698 12.9036C6.95101 13.516 7.37841 14.1208 7.79244 14.7331C7.91707 14.9179 8.07332 14.9994 8.3007 14.9994C11.9722 14.9965 15.6438 14.9977 19.3153 14.9965C19.6011 14.9965 19.8327 14.773 19.8333 14.4973C19.8345 13.5002 19.8339 12.5036 19.8339 11.5065C19.8339 11.4279 19.8339 11.3493 19.8339 11.2584H20.6109C20.6109 11.3534 20.6109 11.4326 20.6109 11.5123C20.6109 12.259 20.6091 13.0057 20.6121 13.7524C20.6133 14.1067 20.755 14.2416 21.1222 14.2463C21.4329 14.2504 21.7448 14.2545 22.0548 14.2433C22.171 14.2392 22.3205 14.2246 22.3947 14.1554C22.7193 13.8515 23.0221 13.526 23.3328 13.2081V7.0158C23.0355 6.71431 22.7455 6.40637 22.436 6.11778ZM2.3438 11.9792H1.57897C1.57897 11.9024 1.57897 11.8261 1.57897 11.7493C1.57897 10.8718 1.58505 9.99433 1.57289 9.11743C1.57107 8.96258 1.49811 8.79776 1.42394 8.65933C1.34186 8.50506 1.23608 8.36488 1.12178 8.23114C0.912028 7.98714 0.801378 7.68917 0.790434 7.3736C0.779491 7.04161 0.864607 6.7888 1.047 6.5096C1.154 6.34654 1.24033 6.12599 1.42759 6.03156C1.63065 5.92891 1.93038 6.00399 2.18816 6.00282C2.23254 6.00223 2.27753 6.00692 2.34441 6.00985V11.9792H2.3438ZM3.88866 9.36144H3.14571V8.64232H3.88866V9.36144ZM8.1937 1.47988V0.766043H15.1629V1.48047H8.1937V1.47988ZM12.0568 2.25414V2.98616H11.2925C11.2925 2.73863 11.2834 2.50284 11.3065 2.26763C11.5515 2.24534 11.7953 2.25414 12.0568 2.25414ZM17.4914 14.2474C17.3923 14.2474 17.3102 14.2474 17.2282 14.2474C14.3689 14.2474 11.509 14.2457 8.64968 14.2516C8.45999 14.2521 8.35056 14.1976 8.24781 14.0427C7.86357 13.4638 7.45319 12.9013 7.07199 12.3206C6.91635 12.0836 6.72971 11.9792 6.43788 11.9886C5.94542 12.0045 5.45175 11.9933 4.95869 11.9933C4.87722 11.9933 4.79575 11.9933 4.70091 11.9933V6.00223C5.17087 6.00223 5.6311 6.0034 6.09134 6.00223C6.95222 5.99988 6.78017 6.07379 7.25195 5.4016C7.60032 4.90537 7.94504 4.40562 8.28368 3.90295C8.35846 3.7915 8.44054 3.75103 8.57794 3.75103C10.6487 3.75513 12.7194 3.75513 14.7902 3.75103C14.9294 3.75044 15.0078 3.79678 15.082 3.90646C15.4924 4.51238 15.9168 5.11008 16.3235 5.71834C16.4627 5.92656 16.6336 6.02159 16.8889 6.00458C17.0841 5.99167 17.281 6.00223 17.4926 6.00223V14.2474H17.4914ZM19.0448 14.2345H18.2988V6.01279H19.0448V14.2345ZM20.5981 10.4818H19.8509V9.01126H20.5981V10.4818ZM22.5528 12.8086C22.5522 12.8978 22.4908 12.9922 22.4403 13.0737C22.4026 13.1348 22.3248 13.1717 22.284 13.2315C22.0652 13.5536 21.7429 13.5148 21.4007 13.4802V6.77472C21.9187 6.69613 22.3053 6.86388 22.5309 7.26509C22.5576 7.31201 22.5564 7.3777 22.5564 7.4346C22.5576 9.22594 22.5588 11.0173 22.5528 12.8086Z" fill="#979797"/>
</svg>
